# xmcd
#
# Track frame offsets: 
#        150
#        14104
#        30197
#        47633
#        60267
#        79082
#        97952
#        115860
#        133614
#        148965
#        165552
#        186809
#        204339
#        223569
#        242029
#        257976
#        273193
#        294266
#        309152
#        326790
#        344178
#
# Disc length: 4797 seconds
#
# Revision: 0
# Processed by: cddbd v1.5.2PL0 Copyright (c) Steve Scherf et al.
# Submitted via: ExactAudioCopy v0.99pb4
#
DISCID=3112bb15
DTITLE=Various Artist - prevue promo 1121A-1
DYEAR=2003
DGENRE=pop
TTITLE0=Frankie J - We Still
TTITLE1=Edie Brickell - Rush Around
TTITLE2=Dave Matthews - Gravedigger
TTITLE3=Cheetah Girls, The - Girl Power(Movie "The Cheetah Girls")
TTITLE4=Amanda Perez - Never(Remix)
TTITLE5=Bubba sparxxx - Deliverance(Radio Edit)
TTITLE6=Outkast - Hey Ya!
TTITLE7=Outkast feat.  Sleepy Brown - Way You Move, The
TTITLE8=Fat Joe and P. Diddy feat.  Dre - Girl I'm A Bad Boy(Movie "Bad 
TTITLE8=Boys II")
TTITLE9=Robert Randolph and The Family Band - Soul Refreshing
TTITLE10=Lucinda Williams - Real Live Bleeding Fingers And Broken Guit
TTITLE10=ar Strings
TTITLE11=Blur - Out Of Time
TTITLE12=Rolling Stones, The - Sympathy For The Devil(Lyric - Fatboy S
TTITLE12=lim Remix)
TTITLE13=Rolling Stones, The - Sympathy For The Devil(Lyric - The Nept
TTITLE13=unes Remix)
TTITLE14=All-American Rejects - Time Stands Still
TTITLE15=Radiohead - Go To Sleep
TTITLE16=Acroma - Wash Away (Some Desert Night)
TTITLE17=Boxing Day - Fall Away
TTITLE18=Endo - Simple Lives(Radio Edit)
TTITLE19=Cave In - Inspire(Edit)
TTITLE20=Something Corporate - Down
EXTD=
EXTT0=
EXTT1=
EXTT2=
EXTT3=
EXTT4=
EXTT5=
EXTT6=
EXTT7=
EXTT8=
EXTT9=
EXTT10=
EXTT11=
EXTT12=
EXTT13=
EXTT14=
EXTT15=
EXTT16=
EXTT17=
EXTT18=
EXTT19=
EXTT20=
PLAYORDER=
